<?xml version="1.0" encoding="utf-8"?>
<svg xmlns="http://www.w3.org/2000/svg" width="160" height="160" viewBox="0 0 160 160" role="img" aria-labelledby="title desc">
  <title id="title">Helix icon</title>
  <desc id="desc">Simple two-color DNA helix icon, navy and coral, optimized for use as a logo</desc>
  <defs>
    <linearGradient id="gA" x1="0%" y1="0%" x2="0%" y2="100%">
      <stop offset="0%" stop-color="#303F9F"/>
      <stop offset="100%" stop-color="#1E3A8A"/>
    </linearGradient>
    <linearGradient id="gB" x1="0%" y1="0%" x2="0%" y2="100%">
      <stop offset="0%" stop-color="#FF6B6B"/>
      <stop offset="100%" stop-color="#FFB6A2"/>
    </linearGradient>
  </defs>

  <g transform="translate(20,10)">
    <!-- left ribbon -->
    <path d="M10 0 C 34 24, 34 64, 10 88 C -14 112, -14 152, 10 176" fill="none" stroke="url(#gA)" stroke-width="8" stroke-linecap="round" stroke-linejoin="round"/>
    <!-- right ribbon -->
    <path d="M70 0 C 46 24, 46 64, 70 88 C 94 112, 94 152, 70 176" fill="none" stroke="url(#gB)" stroke-width="8" stroke-linecap="round" stroke-linejoin="round"/>

    <!-- crossbars -->
    <g stroke="#0F172A" stroke-width="4" stroke-linecap="round" opacity="0.95">
      <line x1="20" y1="18" x2="60" y2="18" />
      <line x1="20" y1="36" x2="60" y2="36" />
      <line x1="20" y1="54" x2="60" y2="54" />
      <line x1="20" y1="72" x2="60" y2="72" />
      <line x1="20" y1="90" x2="60" y2="90" />
      <line x1="20" y1="108" x2="60" y2="108" />
      <line x1="20" y1="126" x2="60" y2="126" />
    </g>

    <!-- outer frame circle (subtle) -->
    <circle cx="40" cy="88" r="78" fill="none" stroke="#E6EEF8" stroke-width="2" opacity="0.7"/>
  </g>
</svg>